<mxfile host="app.diagrams.net" agent="Mozilla/5.0 (Macintosh; Intel Mac OS X 10_15_7) AppleWebKit/605.1.15 (KHTML, like Gecko) Version/17.1.2 Safari/605.1.15" version="24.7.5">
  <diagram name="Page-1" id="vheIxhHiMoazD97xnEGs">
    <mxGraphModel dx="2261" dy="1996" grid="1" gridSize="10" guides="1" tooltips="1" connect="1" arrows="1" fold="1" page="1" pageScale="1" pageWidth="827" pageHeight="1169" math="1" shadow="0">
      <root>
        <mxCell id="0" />
        <mxCell id="1" parent="0" />
        <mxCell id="h5dt25u9Qxzl1WXChBWv-2" value="" style="shape=actor;whiteSpace=wrap;html=1;fillColor=#E3C800;strokeColor=none;fontColor=#000000;" vertex="1" parent="1">
          <mxGeometry x="209" y="23" width="40" height="60" as="geometry" />
        </mxCell>
        <mxCell id="h5dt25u9Qxzl1WXChBWv-3" value="" style="shape=actor;whiteSpace=wrap;html=1;fillColor=#e3c800;strokeColor=none;fontColor=#000000;" vertex="1" parent="1">
          <mxGeometry x="212" y="277" width="40" height="60" as="geometry" />
        </mxCell>
        <mxCell id="h5dt25u9Qxzl1WXChBWv-4" value="" style="shape=actor;whiteSpace=wrap;html=1;fillColor=#e3c800;strokeColor=none;fontColor=#000000;" vertex="1" parent="1">
          <mxGeometry x="93" y="277" width="40" height="60" as="geometry" />
        </mxCell>
        <mxCell id="h5dt25u9Qxzl1WXChBWv-5" value="" style="shape=actor;whiteSpace=wrap;html=1;fillColor=#e3c800;strokeColor=none;fontColor=#000000;" vertex="1" parent="1">
          <mxGeometry x="150" y="277" width="40" height="60" as="geometry" />
        </mxCell>
        <mxCell id="h5dt25u9Qxzl1WXChBWv-6" value="" style="html=1;verticalLabelPosition=bottom;align=center;labelBackgroundColor=#ffffff;verticalAlign=top;strokeWidth=2;strokeColor=#00BEF2;shadow=0;dashed=0;shape=mxgraph.ios7.icons.cloud;fillColor=none;" vertex="1" parent="1">
          <mxGeometry x="610" y="280" width="300" height="280" as="geometry" />
        </mxCell>
        <mxCell id="h5dt25u9Qxzl1WXChBWv-8" value="" style="verticalLabelPosition=bottom;html=1;verticalAlign=top;align=center;strokeColor=none;fillColor=#00BEF2;shape=mxgraph.azure.code_file;pointerEvents=1;" vertex="1" parent="1">
          <mxGeometry x="730.5" y="458" width="47.5" height="50" as="geometry" />
        </mxCell>
        <mxCell id="h5dt25u9Qxzl1WXChBWv-9" value="" style="verticalLabelPosition=bottom;html=1;verticalAlign=top;align=center;strokeColor=none;fillColor=#00BEF2;shape=mxgraph.azure.powershell_file;pointerEvents=1;" vertex="1" parent="1">
          <mxGeometry x="690" y="376" width="50" height="50" as="geometry" />
        </mxCell>
        <mxCell id="h5dt25u9Qxzl1WXChBWv-13" value="" style="verticalLabelPosition=bottom;html=1;verticalAlign=top;align=center;strokeColor=none;fillColor=#00BEF2;shape=mxgraph.azure.rdp_remoting_file;pointerEvents=1;" vertex="1" parent="1">
          <mxGeometry x="811" y="457.8" width="47.5" height="50" as="geometry" />
        </mxCell>
        <mxCell id="h5dt25u9Qxzl1WXChBWv-14" value="" style="shape=actor;whiteSpace=wrap;html=1;fillColor=#e3c800;fontColor=#000000;strokeColor=none;" vertex="1" parent="1">
          <mxGeometry x="-36" y="501" width="40" height="60" as="geometry" />
        </mxCell>
        <mxCell id="h5dt25u9Qxzl1WXChBWv-15" value="" style="shape=actor;whiteSpace=wrap;html=1;fillColor=#e3c800;fontColor=#000000;strokeColor=none;" vertex="1" parent="1">
          <mxGeometry x="125" y="501" width="40" height="60" as="geometry" />
        </mxCell>
        <mxCell id="h5dt25u9Qxzl1WXChBWv-16" value="" style="shape=actor;whiteSpace=wrap;html=1;fillColor=#e3c800;fontColor=#000000;strokeColor=none;" vertex="1" parent="1">
          <mxGeometry x="175" y="500" width="40" height="60" as="geometry" />
        </mxCell>
        <mxCell id="h5dt25u9Qxzl1WXChBWv-17" value="" style="shape=actor;whiteSpace=wrap;html=1;fillColor=#e3c800;fontColor=#000000;strokeColor=none;" vertex="1" parent="1">
          <mxGeometry x="438" y="501" width="40" height="60" as="geometry" />
        </mxCell>
        <mxCell id="h5dt25u9Qxzl1WXChBWv-18" value="" style="shape=actor;whiteSpace=wrap;html=1;fillColor=#E3C800;strokeColor=none;fontColor=#000000;" vertex="1" parent="1">
          <mxGeometry x="276" y="103" width="40" height="60" as="geometry" />
        </mxCell>
        <mxCell id="h5dt25u9Qxzl1WXChBWv-19" value="" style="shape=actor;whiteSpace=wrap;html=1;fillColor=#e3c800;strokeColor=none;fontColor=#000000;" vertex="1" parent="1">
          <mxGeometry x="145" y="104" width="40" height="60" as="geometry" />
        </mxCell>
        <mxCell id="h5dt25u9Qxzl1WXChBWv-21" value="" style="shape=actor;whiteSpace=wrap;html=1;fillColor=#e3c800;fontColor=#000000;strokeColor=none;" vertex="1" parent="1">
          <mxGeometry x="14" y="500" width="40" height="60" as="geometry" />
        </mxCell>
        <mxCell id="h5dt25u9Qxzl1WXChBWv-22" value="&lt;font style=&quot;font-size: 18px;&quot; color=&quot;#ff0000&quot;&gt;Level 1&lt;/font&gt;" style="text;html=1;align=center;verticalAlign=middle;resizable=0;points=[];autosize=1;strokeColor=none;fillColor=none;fontStyle=1" vertex="1" parent="1">
          <mxGeometry x="-124" y="525" width="80" height="30" as="geometry" />
        </mxCell>
        <mxCell id="h5dt25u9Qxzl1WXChBWv-23" value="" style="endArrow=classic;html=1;rounded=0;strokeWidth=3;strokeColor=#000000;" edge="1" parent="1">
          <mxGeometry width="50" height="50" relative="1" as="geometry">
            <mxPoint x="-50" y="560" as="sourcePoint" />
            <mxPoint x="-49" y="40" as="targetPoint" />
          </mxGeometry>
        </mxCell>
        <mxCell id="h5dt25u9Qxzl1WXChBWv-24" value="&lt;font style=&quot;font-size: 18px;&quot;&gt;Lowest level&lt;/font&gt;" style="text;html=1;align=center;verticalAlign=middle;resizable=0;points=[];autosize=1;strokeColor=none;fillColor=none;" vertex="1" parent="1">
          <mxGeometry x="-105" y="553" width="120" height="30" as="geometry" />
        </mxCell>
        <mxCell id="h5dt25u9Qxzl1WXChBWv-25" value="&lt;font style=&quot;font-size: 18px;&quot;&gt;&lt;font style=&quot;font-size: 18px;&quot;&gt;H&lt;/font&gt;ighest level&lt;/font&gt;" style="text;html=1;align=center;verticalAlign=middle;resizable=0;points=[];autosize=1;strokeColor=none;fillColor=none;" vertex="1" parent="1">
          <mxGeometry x="-115" y="15" width="130" height="30" as="geometry" />
        </mxCell>
        <mxCell id="h5dt25u9Qxzl1WXChBWv-26" value="&lt;font style=&quot;font-size: 18px;&quot; color=&quot;#ff0000&quot;&gt;Level n&lt;/font&gt;" style="text;html=1;align=center;verticalAlign=middle;resizable=0;points=[];autosize=1;strokeColor=none;fillColor=none;fontStyle=1" vertex="1" parent="1">
          <mxGeometry x="133" y="41" width="80" height="30" as="geometry" />
        </mxCell>
        <mxCell id="h5dt25u9Qxzl1WXChBWv-27" value="&lt;font style=&quot;font-size: 18px;&quot; color=&quot;#ff0000&quot;&gt;Level n--1&lt;/font&gt;" style="text;html=1;align=center;verticalAlign=middle;resizable=0;points=[];autosize=1;strokeColor=none;fillColor=none;fontStyle=1" vertex="1" parent="1">
          <mxGeometry x="51" y="124" width="100" height="30" as="geometry" />
        </mxCell>
        <mxCell id="h5dt25u9Qxzl1WXChBWv-28" value="" style="endArrow=none;dashed=1;html=1;dashPattern=1 3;strokeWidth=4;rounded=0;strokeColor=#E3C800;" edge="1" parent="1">
          <mxGeometry width="50" height="50" relative="1" as="geometry">
            <mxPoint x="221" y="480" as="sourcePoint" />
            <mxPoint x="221" y="418" as="targetPoint" />
          </mxGeometry>
        </mxCell>
        <mxCell id="h5dt25u9Qxzl1WXChBWv-29" value="" style="endArrow=none;dashed=1;html=1;dashPattern=1 3;strokeWidth=4;rounded=0;strokeColor=#E3C800;" edge="1" parent="1">
          <mxGeometry width="50" height="50" relative="1" as="geometry">
            <mxPoint x="400" y="540" as="sourcePoint" />
            <mxPoint x="270" y="543" as="targetPoint" />
          </mxGeometry>
        </mxCell>
        <mxCell id="h5dt25u9Qxzl1WXChBWv-31" value="&lt;font style=&quot;font-size: 18px;&quot; color=&quot;#ff0000&quot;&gt;Level k&lt;/font&gt;" style="text;html=1;align=center;verticalAlign=middle;resizable=0;points=[];autosize=1;strokeColor=none;fillColor=none;fontStyle=1" vertex="1" parent="1">
          <mxGeometry x="17" y="298" width="80" height="30" as="geometry" />
        </mxCell>
        <mxCell id="h5dt25u9Qxzl1WXChBWv-32" value="" style="endArrow=none;dashed=1;html=1;dashPattern=1 3;strokeWidth=4;rounded=0;strokeColor=#E3C800;" edge="1" parent="1">
          <mxGeometry width="50" height="50" relative="1" as="geometry">
            <mxPoint x="230" y="255" as="sourcePoint" />
            <mxPoint x="230" y="185" as="targetPoint" />
          </mxGeometry>
        </mxCell>
        <mxCell id="h5dt25u9Qxzl1WXChBWv-33" value="" style="shape=actor;whiteSpace=wrap;html=1;fillColor=#E3C800;strokeColor=none;fontColor=#000000;" vertex="1" parent="1">
          <mxGeometry x="360" y="277" width="40" height="60" as="geometry" />
        </mxCell>
        <mxCell id="h5dt25u9Qxzl1WXChBWv-34" value="" style="endArrow=none;dashed=1;html=1;dashPattern=1 3;strokeWidth=4;rounded=0;strokeColor=#E3C800;" edge="1" parent="1">
          <mxGeometry width="50" height="50" relative="1" as="geometry">
            <mxPoint x="340" y="314" as="sourcePoint" />
            <mxPoint x="260" y="314" as="targetPoint" />
          </mxGeometry>
        </mxCell>
        <mxCell id="h5dt25u9Qxzl1WXChBWv-35" value="" style="shape=actor;whiteSpace=wrap;html=1;fillColor=#e3c800;fontColor=#000000;strokeColor=none;" vertex="1" parent="1">
          <mxGeometry x="491" y="501" width="40" height="60" as="geometry" />
        </mxCell>
        <mxCell id="h5dt25u9Qxzl1WXChBWv-37" value="&lt;font style=&quot;font-size: 18px; font-weight: normal;&quot;&gt;Documents encrypted&amp;nbsp;&lt;/font&gt;&lt;div style=&quot;font-size: 18px;&quot;&gt;&lt;font style=&quot;font-size: 18px; font-weight: normal;&quot;&gt;&lt;font style=&quot;font-size: 18px;&quot;&gt;with &lt;/font&gt;&lt;font style=&quot;font-size: 18px;&quot;&gt;attribute&amp;nbsp;&lt;/font&gt;&lt;/font&gt;&lt;/div&gt;&lt;div style=&quot;font-size: 18px;&quot;&gt;&lt;font style=&quot;font-size: 18px; font-weight: normal;&quot;&gt;[[Project A, Level k]]&lt;/font&gt;&lt;/div&gt;" style="text;html=1;align=center;verticalAlign=middle;resizable=0;points=[];autosize=1;strokeColor=none;fillColor=none;fontStyle=1" vertex="1" parent="1">
          <mxGeometry x="507" y="25" width="200" height="80" as="geometry" />
        </mxCell>
        <mxCell id="h5dt25u9Qxzl1WXChBWv-38" value="" style="endArrow=classic;html=1;rounded=0;strokeWidth=4;fillColor=#e3c800;strokeColor=#E3C800;" edge="1" parent="1">
          <mxGeometry width="50" height="50" relative="1" as="geometry">
            <mxPoint x="550" y="110" as="sourcePoint" />
            <mxPoint x="316" y="80" as="targetPoint" />
          </mxGeometry>
        </mxCell>
        <mxCell id="h5dt25u9Qxzl1WXChBWv-39" value="" style="endArrow=classic;html=1;rounded=0;strokeWidth=4;fillColor=#e3c800;strokeColor=#E3C800;" edge="1" parent="1">
          <mxGeometry width="50" height="50" relative="1" as="geometry">
            <mxPoint x="550" y="140" as="sourcePoint" />
            <mxPoint x="330" y="160" as="targetPoint" />
          </mxGeometry>
        </mxCell>
        <mxCell id="h5dt25u9Qxzl1WXChBWv-40" value="" style="endArrow=classic;html=1;rounded=0;strokeWidth=4;fillColor=#e3c800;strokeColor=#E3C800;" edge="1" parent="1">
          <mxGeometry width="50" height="50" relative="1" as="geometry">
            <mxPoint x="570" y="170" as="sourcePoint" />
            <mxPoint x="410" y="290" as="targetPoint" />
          </mxGeometry>
        </mxCell>
        <mxCell id="h5dt25u9Qxzl1WXChBWv-44" value="" style="endArrow=classic;html=1;rounded=0;strokeWidth=4;fillColor=#e3c800;strokeColor=#E3C800;" edge="1" parent="1">
          <mxGeometry width="50" height="50" relative="1" as="geometry">
            <mxPoint x="590" y="200" as="sourcePoint" />
            <mxPoint x="460" y="360" as="targetPoint" />
          </mxGeometry>
        </mxCell>
        <mxCell id="h5dt25u9Qxzl1WXChBWv-54" value="" style="shape=actor;whiteSpace=wrap;html=1;fillColor=#e3c800;strokeColor=none;fontColor=#000000;" vertex="1" parent="1">
          <mxGeometry x="211" y="344" width="40" height="60" as="geometry" />
        </mxCell>
        <mxCell id="h5dt25u9Qxzl1WXChBWv-55" value="" style="shape=actor;whiteSpace=wrap;html=1;fillColor=#e3c800;strokeColor=none;fontColor=#000000;" vertex="1" parent="1">
          <mxGeometry x="92" y="344" width="40" height="60" as="geometry" />
        </mxCell>
        <mxCell id="h5dt25u9Qxzl1WXChBWv-56" value="" style="shape=actor;whiteSpace=wrap;html=1;fillColor=#e3c800;strokeColor=none;fontColor=#000000;" vertex="1" parent="1">
          <mxGeometry x="149" y="344" width="40" height="60" as="geometry" />
        </mxCell>
        <mxCell id="h5dt25u9Qxzl1WXChBWv-57" value="&lt;font style=&quot;font-size: 18px;&quot; color=&quot;#ff0000&quot;&gt;Level k--1&lt;/font&gt;" style="text;html=1;align=center;verticalAlign=middle;resizable=0;points=[];autosize=1;strokeColor=none;fillColor=none;fontStyle=1" vertex="1" parent="1">
          <mxGeometry x="-50" y="370" width="100" height="30" as="geometry" />
        </mxCell>
        <mxCell id="h5dt25u9Qxzl1WXChBWv-58" value="" style="shape=actor;whiteSpace=wrap;html=1;fillColor=#e3c800;strokeColor=none;fontColor=#000000;" vertex="1" parent="1">
          <mxGeometry x="410" y="344" width="40" height="60" as="geometry" />
        </mxCell>
        <mxCell id="h5dt25u9Qxzl1WXChBWv-59" value="" style="endArrow=none;dashed=1;html=1;dashPattern=1 3;strokeWidth=4;rounded=0;strokeColor=#E3C800;" edge="1" parent="1">
          <mxGeometry width="50" height="50" relative="1" as="geometry">
            <mxPoint x="390" y="380" as="sourcePoint" />
            <mxPoint x="259" y="381" as="targetPoint" />
          </mxGeometry>
        </mxCell>
        <mxCell id="h5dt25u9Qxzl1WXChBWv-62" value="" style="endArrow=classic;html=1;rounded=0;strokeWidth=4;fillColor=#e3c800;strokeColor=#E3C800;" edge="1" parent="1">
          <mxGeometry width="50" height="50" relative="1" as="geometry">
            <mxPoint x="600" y="210" as="sourcePoint" />
            <mxPoint x="490" y="500" as="targetPoint" />
          </mxGeometry>
        </mxCell>
        <mxCell id="h5dt25u9Qxzl1WXChBWv-63" value="" style="shape=actor;whiteSpace=wrap;html=1;fillColor=#e3c800;strokeColor=none;fontColor=#000000;" vertex="1" parent="1">
          <mxGeometry x="43" y="344" width="40" height="60" as="geometry" />
        </mxCell>
        <mxCell id="h5dt25u9Qxzl1WXChBWv-68" value="" style="shape=actor;whiteSpace=wrap;html=1;fillColor=#3399FF;strokeColor=none;fontColor=#000000;" vertex="1" parent="1">
          <mxGeometry x="814" y="61" width="20" height="29" as="geometry" />
        </mxCell>
        <mxCell id="h5dt25u9Qxzl1WXChBWv-69" value="" style="shape=actor;whiteSpace=wrap;html=1;fillColor=#3399FF;strokeColor=none;fontColor=#000000;" vertex="1" parent="1">
          <mxGeometry x="837" y="71" width="20" height="29" as="geometry" />
        </mxCell>
        <mxCell id="h5dt25u9Qxzl1WXChBWv-70" value="" style="shape=actor;whiteSpace=wrap;html=1;fillColor=#3399FF;strokeColor=none;fontColor=#000000;" vertex="1" parent="1">
          <mxGeometry x="809" y="79" width="20" height="29" as="geometry" />
        </mxCell>
        <mxCell id="h5dt25u9Qxzl1WXChBWv-71" value="" style="shape=actor;whiteSpace=wrap;html=1;fillColor=#3399FF;strokeColor=none;fontColor=#000000;" vertex="1" parent="1">
          <mxGeometry x="835" y="91" width="20" height="29" as="geometry" />
        </mxCell>
        <mxCell id="h5dt25u9Qxzl1WXChBWv-72" value="" style="shape=actor;whiteSpace=wrap;html=1;fillColor=#3399FF;strokeColor=none;fontColor=#000000;" vertex="1" parent="1">
          <mxGeometry x="850" y="62" width="20" height="29" as="geometry" />
        </mxCell>
        <mxCell id="h5dt25u9Qxzl1WXChBWv-73" value="" style="shape=actor;whiteSpace=wrap;html=1;fillColor=#3399FF;strokeColor=none;fontColor=#000000;" vertex="1" parent="1">
          <mxGeometry x="858" y="86" width="20" height="29" as="geometry" />
        </mxCell>
        <mxCell id="h5dt25u9Qxzl1WXChBWv-74" value="" style="shape=actor;whiteSpace=wrap;html=1;fillColor=#f0a30a;strokeColor=none;fontColor=#000000;" vertex="1" parent="1">
          <mxGeometry x="813" y="191" width="20" height="29" as="geometry" />
        </mxCell>
        <mxCell id="h5dt25u9Qxzl1WXChBWv-75" value="" style="shape=actor;whiteSpace=wrap;html=1;fillColor=#f0a30a;strokeColor=none;fontColor=#000000;" vertex="1" parent="1">
          <mxGeometry x="836" y="201" width="20" height="29" as="geometry" />
        </mxCell>
        <mxCell id="h5dt25u9Qxzl1WXChBWv-76" value="" style="shape=actor;whiteSpace=wrap;html=1;fillColor=#F0A30A;strokeColor=none;fontColor=#000000;" vertex="1" parent="1">
          <mxGeometry x="808" y="209" width="20" height="29" as="geometry" />
        </mxCell>
        <mxCell id="h5dt25u9Qxzl1WXChBWv-77" value="" style="shape=actor;whiteSpace=wrap;html=1;fillColor=#f0a30a;strokeColor=none;fontColor=#000000;" vertex="1" parent="1">
          <mxGeometry x="834" y="221" width="20" height="29" as="geometry" />
        </mxCell>
        <mxCell id="h5dt25u9Qxzl1WXChBWv-78" value="" style="shape=actor;whiteSpace=wrap;html=1;fillColor=#f0a30a;strokeColor=none;fontColor=#000000;" vertex="1" parent="1">
          <mxGeometry x="849" y="192" width="20" height="29" as="geometry" />
        </mxCell>
        <mxCell id="h5dt25u9Qxzl1WXChBWv-79" value="" style="shape=actor;whiteSpace=wrap;html=1;fillColor=#f0a30a;strokeColor=none;fontColor=#000000;" vertex="1" parent="1">
          <mxGeometry x="857" y="216" width="20" height="29" as="geometry" />
        </mxCell>
        <mxCell id="h5dt25u9Qxzl1WXChBWv-80" value="" style="endArrow=classic;html=1;rounded=0;strokeWidth=4;fillColor=#fa6800;strokeColor=#3399FF;" edge="1" parent="1">
          <mxGeometry width="50" height="50" relative="1" as="geometry">
            <mxPoint x="660" y="130" as="sourcePoint" />
            <mxPoint x="790" y="80" as="targetPoint" />
          </mxGeometry>
        </mxCell>
        <mxCell id="h5dt25u9Qxzl1WXChBWv-81" value="" style="endArrow=classic;html=1;rounded=0;strokeWidth=4;fillColor=#f0a30a;strokeColor=#F0A30A;" edge="1" parent="1">
          <mxGeometry width="50" height="50" relative="1" as="geometry">
            <mxPoint x="658" y="152" as="sourcePoint" />
            <mxPoint x="790" y="210" as="targetPoint" />
          </mxGeometry>
        </mxCell>
        <mxCell id="h5dt25u9Qxzl1WXChBWv-84" value="&lt;b&gt;&lt;font style=&quot;font-size: 19px;&quot; color=&quot;#f0a30a&quot;&gt;PROJECT C&lt;/font&gt;&lt;/b&gt;" style="text;html=1;align=center;verticalAlign=middle;resizable=0;points=[];autosize=1;strokeColor=none;fillColor=none;" vertex="1" parent="1">
          <mxGeometry x="779" y="158" width="130" height="40" as="geometry" />
        </mxCell>
        <mxCell id="h5dt25u9Qxzl1WXChBWv-85" value="&lt;b&gt;&lt;font color=&quot;#3399ff&quot; style=&quot;font-size: 18px;&quot;&gt;PROJECT B&lt;/font&gt;&lt;/b&gt;" style="text;html=1;align=center;verticalAlign=middle;resizable=0;points=[];autosize=1;strokeColor=none;fillColor=none;" vertex="1" parent="1">
          <mxGeometry x="781" y="32" width="130" height="30" as="geometry" />
        </mxCell>
        <mxCell id="h5dt25u9Qxzl1WXChBWv-86" value="&lt;b&gt;&lt;font color=&quot;#e3c800&quot; style=&quot;font-size: 22px;&quot;&gt;PROJECT A&lt;/font&gt;&lt;/b&gt;" style="text;html=1;align=center;verticalAlign=middle;resizable=0;points=[];autosize=1;strokeColor=none;fillColor=none;" vertex="1" parent="1">
          <mxGeometry x="147" y="-10" width="150" height="40" as="geometry" />
        </mxCell>
        <mxCell id="h5dt25u9Qxzl1WXChBWv-90" value="" style="verticalLabelPosition=bottom;html=1;verticalAlign=top;align=center;strokeColor=none;fillColor=#00BEF2;shape=mxgraph.azure.file_2;pointerEvents=1;" vertex="1" parent="1">
          <mxGeometry x="651" y="457.8" width="47.5" height="50" as="geometry" />
        </mxCell>
        <mxCell id="h5dt25u9Qxzl1WXChBWv-91" value="" style="verticalLabelPosition=bottom;html=1;verticalAlign=top;align=center;strokeColor=none;fillColor=#00BEF2;shape=mxgraph.azure.cloud_services_configuration_file;pointerEvents=1;" vertex="1" parent="1">
          <mxGeometry x="766.5" y="376" width="47.5" height="50" as="geometry" />
        </mxCell>
        <mxCell id="h5dt25u9Qxzl1WXChBWv-92" value="" style="verticalLabelPosition=bottom;html=1;verticalAlign=top;align=center;strokeColor=none;fillColor=#00BEF2;shape=mxgraph.azure.cloud_services_configuration_file;pointerEvents=1;" vertex="1" parent="1">
          <mxGeometry x="590" y="103" width="47.5" height="50" as="geometry" />
        </mxCell>
        <mxCell id="h5dt25u9Qxzl1WXChBWv-95" value="" style="endArrow=classic;html=1;rounded=0;strokeWidth=4;strokeColor=#00BEF2;" edge="1" parent="1">
          <mxGeometry width="50" height="50" relative="1" as="geometry">
            <mxPoint x="712.5" y="318" as="sourcePoint" />
            <mxPoint x="622.5" y="163" as="targetPoint" />
          </mxGeometry>
        </mxCell>
        <mxCell id="h5dt25u9Qxzl1WXChBWv-96" value="" style="shape=actor;whiteSpace=wrap;html=1;fillColor=#e3c800;fontColor=#000000;strokeColor=none;" vertex="1" parent="1">
          <mxGeometry x="69" y="501" width="40" height="60" as="geometry" />
        </mxCell>
        <mxCell id="h5dt25u9Qxzl1WXChBWv-97" value="" style="shape=actor;whiteSpace=wrap;html=1;fillColor=#e3c800;fontColor=#000000;strokeColor=none;" vertex="1" parent="1">
          <mxGeometry x="224" y="500" width="40" height="60" as="geometry" />
        </mxCell>
        <mxCell id="h5dt25u9Qxzl1WXChBWv-98" value="" style="sketch=0;html=1;aspect=fixed;strokeColor=none;shadow=0;align=center;fillColor=#2D9C5E;verticalAlign=top;labelPosition=center;verticalLabelPosition=bottom;shape=mxgraph.gcp2.check" vertex="1" parent="1">
          <mxGeometry x="324" y="22" width="100" height="80" as="geometry" />
        </mxCell>
        <mxCell id="h5dt25u9Qxzl1WXChBWv-101" value="" style="verticalLabelPosition=bottom;verticalAlign=top;html=1;shape=mxgraph.basic.x;fillColor=#FF0000;strokeColor=none;" vertex="1" parent="1">
          <mxGeometry x="502" y="344" width="76" height="42" as="geometry" />
        </mxCell>
        <mxCell id="h5dt25u9Qxzl1WXChBWv-104" value="" style="verticalLabelPosition=bottom;verticalAlign=top;html=1;shape=mxgraph.basic.x;fillColor=#FF0000;strokeColor=none;" vertex="1" parent="1">
          <mxGeometry x="461" y="290" width="76" height="42" as="geometry" />
        </mxCell>
        <mxCell id="h5dt25u9Qxzl1WXChBWv-109" value="" style="sketch=0;html=1;aspect=fixed;strokeColor=none;shadow=0;align=center;fillColor=#2D9C5E;verticalAlign=top;labelPosition=center;verticalLabelPosition=bottom;shape=mxgraph.gcp2.check" vertex="1" parent="1">
          <mxGeometry x="431" y="188" width="100" height="80" as="geometry" />
        </mxCell>
        <mxCell id="h5dt25u9Qxzl1WXChBWv-110" value="" style="sketch=0;html=1;aspect=fixed;strokeColor=none;shadow=0;align=center;fillColor=#2D9C5E;verticalAlign=top;labelPosition=center;verticalLabelPosition=bottom;shape=mxgraph.gcp2.check" vertex="1" parent="1">
          <mxGeometry x="371" y="92" width="100" height="80" as="geometry" />
        </mxCell>
        <mxCell id="h5dt25u9Qxzl1WXChBWv-111" value="" style="verticalLabelPosition=bottom;verticalAlign=top;html=1;shape=mxgraph.basic.x;fillColor=#FF0000;strokeColor=none;" vertex="1" parent="1">
          <mxGeometry x="690.25" y="155" width="76" height="42" as="geometry" />
        </mxCell>
        <mxCell id="h5dt25u9Qxzl1WXChBWv-112" value="" style="verticalLabelPosition=bottom;verticalAlign=top;html=1;shape=mxgraph.basic.x;fillColor=#FF0000;strokeColor=none;" vertex="1" parent="1">
          <mxGeometry x="690.5" y="82" width="76" height="42" as="geometry" />
        </mxCell>
      </root>
    </mxGraphModel>
  </diagram>
</mxfile>
